PathFileType	4	(X/Y/Z)	./resultDataOpenSim/trcMotMarkerGrf/sub10/qtm-01-06.trc
DataRate	CameraRate	NumFrames	NumMarkers	Units	OrigDataRate	OrigDataStartFrame	OrigNumFrames
250.000000	250.000000	8	24	m	250.000000	117	464
Frame#	Time	L.Toe.Tip			R.Toe.Tip			L.Ankle.Lat			R.Ankle.Lat			L.Ankle.Med			R.Ankle.Med			L.Heel			R.Heel			L.Knee.Lat			R.Knee.Lat			L.Knee.Med			R.Knee.Med			L.Thigh.Upper			R.Thigh.Upper			L.ASIS			R.ASIS			V.Sacral			L.Acromium			R.Acromium			C7			L.Elbow			R.Elbow			L.Wrist.Lat			R.Wrist.Lat
		X1	Y1	Z1	X2	Y2	Z2	X3	Y3	Z3	X4	Y4	Z4	X5	Y5	Z5	X6	Y6	Z6	X7	Y7	Z7	X8	Y8	Z8	X9	Y9	Z9	X10	Y10	Z10	X11	Y11	Z11	X12	Y12	Z12	X13	Y13	Z13	X14	Y14	Z14	X15	Y15	Z15	X16	Y16	Z16	X17	Y17	Z17	X18	Y18	Z18	X19	Y19	Z19	X20	Y20	Z20	X21	Y21	Z21	X22	Y22	Z22	X23	Y23	Z23	X24	Y24	Z24

117	0.464	-0.3183973	0.082447984	-0.10247618	-0.74056526	0.039297803	0.04062345	-0.4545767	0.077518627	-0.12302847	-0.88187729	0.055291385	0.070072291	-0.44249309	0.10741639	-0.042105512	-0.85901096	0.08041256	-0.013615615	-0.50539385	0.037562592	-0.07218109	-0.93260107	0.031543629	0.019952866	-0.50435905	0.46950393	-0.15493401	-0.75614988	0.44149617	0.1085919	-0.48168654	0.45031274	-0.034480495	-0.74158385	0.44225143	-0.020483252	-0.64608049	0.82883153	-0.21808179	-0.70242886	0.85219616	0.1608361	-0.6101191	0.9455354	-0.14892407	-0.62175844	0.9417523	0.099183779	-0.81097031	0.94130466	-0.044417334	-0.67138918	1.4043968	-0.17989322	-0.6782831	1.4064748	0.14486408	-0.75828396	1.4349228	-0.022963443	-0.79503849	1.0817935	-0.22377071	-0.70717174	1.0604004	0.23716958	-0.68634202	0.86967179	-0.28162963	-0.51857692	0.90073891	0.24713542
118	0.468	-0.30091263	0.085798372	-0.10117076	-0.74060543	0.039195806	0.040589001	-0.43697833	0.07766314	-0.12222519	-0.88172436	0.055372372	0.069991379	-0.42583935	0.10818953	-0.041256367	-0.85888596	0.080399699	-0.013742107	-0.48691663	0.036668356	-0.07142812	-0.93257539	0.031741779	0.019864656	-0.49757718	0.46799911	-0.1551302	-0.75350384	0.44064113	0.10845794	-0.47544812	0.44891011	-0.034360872	-0.73867585	0.44149266	-0.020563572	-0.6393207	0.82772709	-0.21784155	-0.69802207	0.85093464	0.16100853	-0.60364921	0.94443462	-0.14868705	-0.6169259	0.94060174	0.099693899	-0.80415613	0.93899205	-0.044949226	-0.66614697	1.4030825	-0.17951992	-0.6724725	1.4050521	0.1452502	-0.75243376	1.4336248	-0.022634568	-0.79136516	1.0810126	-0.22347558	-0.69922962	1.0587824	0.23832894	-0.68366863	0.8686231	-0.28206566	-0.50842658	0.90131363	0.24676982
119	0.472	-0.28378507	0.089380731	-0.09973997	-0.74059724	0.039128192	0.040565746	-0.41967164	0.07805341	-0.12148379	-0.88161266	0.055453525	0.069922378	-0.40956476	0.10912617	-0.040491097	-0.8587889	0.080352011	-0.013930975	-0.46879408	0.036056966	-0.070755063	-0.93254951	0.031961636	0.019780116	-0.4907021	0.46648181	-0.15538644	-0.75075346	0.43972912	0.1082977	-0.46933693	0.44740841	-0.034419777	-0.735661	0.44067594	-0.020650979	-0.63258805	0.826532	-0.21764592	-0.69352919	0.84948465	0.16121551	-0.59720305	0.94325172	-0.14848691	-0.61206214	0.93940406	0.10018211	-0.79744355	0.93680416	-0.045653548	-0.66089196	1.4017241	-0.17916573	-0.66663438	1.4035662	0.14561096	-0.746522	1.4322804	-0.022340707	-0.78775696	1.080205	-0.22321187	-0.69152411	1.057118	0.23984717	-0.68096273	0.86754318	-0.28251339	-0.4982305	0.90181017	0.24628906
120	0.476	-0.26704995	0.093198047	-0.09819796	-0.74054458	0.039091405	0.04055137	-0.40267599	0.078659109	-0.12081849	-0.88152185	0.055539171	0.069854923	-0.39365387	0.11021637	-0.03986024	-0.8586661	0.080283919	-0.014137251	-0.45104519	0.03568689	-0.070200329	-0.93252317	0.032202119	0.01969551	-0.48372551	0.46496445	-0.15566108	-0.74780719	0.43880978	0.10816964	-0.463249	0.44583917	-0.034582437	-0.73254613	0.43980187	-0.020736185	-0.62588827	0.82524118	-0.21749771	-0.68900283	0.84795588	0.16142389	-0.59069831	0.9419989	-0.14829067	-0.60716268	0.93816255	0.10065325	-0.79112913	0.93481315	-0.046442139	-0.6556277	1.4003276	-0.1788297	-0.66078841	1.4020188	0.14595791	-0.74087131	1.4309135	-0.021940283	-0.78417079	1.0793768	-0.22296995	-0.68408136	1.0553909	0.24178005	-0.6782209	0.8664332	-0.28296683	-0.4880526	0.90225031	0.24575117
121	0.48	-0.25074809	0.097218084	-0.096583636	-0.74046829	0.039061899	0.040536719	-0.38599406	0.079453532	-0.12023943	-0.88141929	0.055635022	0.069782398	-0.37806907	0.11147984	-0.039423859	-0.85847583	0.080217117	-0.014324354	-0.43366917	0.035505212	-0.069783396	-0.93249552	0.032455385	0.019602539	-0.47666169	0.46345806	-0.15591698	-0.74464135	0.43790555	0.10810085	-0.45709356	0.4442453	-0.034770925	-0.7293338	0.43887531	-0.020804548	-0.6191393	0.82387359	-0.21737137	-0.68451559	0.84649336	0.16159862	-0.58411044	0.94067955	-0.14806693	-0.6022327	0.9368818	0.1011135	-0.78519787	0.93300005	-0.04716004	-0.65031726	1.3988913	-0.17850662	-0.65494732	1.400421	0.14630094	-0.73549685	1.4295219	-0.021433145	-0.78042691	1.0785288	-0.22267717	-0.67669055	1.0535923	0.24380001	-0.67544655	0.86529011	-0.28341263	-0.4779874	0.9026755	0.24523342
122	0.484	-0.23491842	0.10137609	-0.094949484	-0.74038346	0.0390259	0.040517543	-0.36963659	0.080418737	-0.11975865	-0.88128731	0.05574326	0.069705089	-0.36281184	0.11291717	-0.039208293	-0.85821584	0.080162698	-0.014488232	-0.41666866	0.03546711	-0.069527977	-0.93246633	0.032710805	0.019495425	-0.46952267	0.46197482	-0.15613985	-0.74134426	0.43698523	0.10806404	-0.45082293	0.44266303	-0.034940458	-0.72602917	0.43790368	-0.020847641	-0.61226312	0.82244986	-0.2172254	-0.68009411	0.84514376	0.16173048	-0.57748374	0.93929196	-0.14779977	-0.5972818	0.93555847	0.10156417	-0.77946622	0.93130722	-0.0477673	-0.64489795	1.397411	-0.17818491	-0.64910665	1.3987838	0.14664588	-0.73018945	1.4280893	-0.020910992	-0.77633414	1.0776517	-0.2222583	-0.66907821	1.0517395	0.24545406	-0.67264183	0.8641132	-0.28384106	-0.46807193	0.90310771	0.24476259
123	0.488	-0.21958613	0.10559329	-0.093338636	-0.74029608	0.038981551	0.04049418	-0.35363563	0.081532486	-0.11939533	-0.88112449	0.055857983	0.069627829	-0.34792574	0.11446513	-0.039137352	-0.85790872	0.080122283	-0.014643198	-0.40005986	0.035544964	-0.069472603	-0.93243517	0.032966164	0.019379367	-0.46229758	0.46052836	-0.15632065	-0.73805214	0.43599986	0.10801191	-0.44442382	0.44111722	-0.035071154	-0.72265286	0.43689852	-0.020864666	-0.6052798	0.82097512	-0.21703205	-0.67571864	0.84386313	0.16182859	-0.57084948	0.93783938	-0.14748306	-0.59230819	0.93418413	0.10199834	-0.77379	0.9297019	-0.048298333	-0.63938073	1.3958926	-0.17786295	-0.64326162	1.3971102	0.1469931	-0.72479861	1.4266111	-0.020434755	-0.77193454	1.0767334	-0.22173954	-0.66118404	1.0498688	0.2466076	-0.6698015	0.86290847	-0.28425332	-0.45828221	0.9035386	0.24431937
124	0.492	-0.20475935	0.1097898	-0.091772673	-0.74020627	0.038932551	0.040472464	-0.33802573	0.082764493	-0.11916733	-0.88093376	0.055972358	0.069554175	-0.33346304	0.11602606	-0.039083453	-0.85758023	0.080097211	-0.014795196	-0.38387813	0.035717071	-0.069695357	-0.93240087	0.033231383	0.019270691	-0.45497796	0.45913132	-0.15643863	-0.73485873	0.43493651	0.1079223	-0.43791996	0.43962134	-0.035153294	-0.71923989	0.43586731	-0.020860385	-0.59828915	0.81943928	-0.21680019	-0.67136431	0.8425978	0.16190603	-0.56420112	0.93632796	-0.14711431	-0.58730862	0.93275694	0.10241554	-0.76811472	0.92817524	-0.048790286	-0.63388536	1.3943517	-0.17756456	-0.63741508	1.3953999	0.14733163	-0.71931127	1.4250924	-0.0200122	-0.76753372	1.075778	-0.22125361	-0.65313348	1.048004	0.24743334	-0.66691927	0.86168545	-0.28465602	-0.44859466	0.90394403	0.24388677
